<svg xmlns="http://www.w3.org/2000/svg" xmlns:xlink="http://www.w3.org/1999/xlink" viewBox="0 0 140.53 117.56"><defs><style>.cls-1{isolation:isolate;}.cls-2{fill:#500472;}.cls-3{fill:url(#Dégradé_sans_nom_13);}.cls-4{mix-blend-mode:multiply;}.cls-5{fill:url(#Dégradé_sans_nom_12);}.cls-6{fill:url(#Dégradé_sans_nom_12-2);}.cls-7,.cls-9{mix-blend-mode:overlay;}.cls-7{fill:url(#linear-gradient);}.cls-8{fill:#79cbb8;}.cls-9{fill:url(#linear-gradient-2);}.cls-10{fill:url(#linear-gradient-3);}.cls-11{fill:url(#linear-gradient-4);}</style><linearGradient id="Dégradé_sans_nom_13" x1="62.5" y1="47.11" x2="78.02" y2="70.45" gradientUnits="userSpaceOnUse"><stop offset="0" stop-color="#d10000"/><stop offset="1" stop-color="#930000"/></linearGradient><linearGradient id="Dégradé_sans_nom_12" x1="48.12" y1="93.89" x2="37.39" y2="77.51" gradientUnits="userSpaceOnUse"><stop offset="0" stop-color="#fff"/><stop offset="0.09" stop-color="#f7f7f7"/><stop offset="0.22" stop-color="#e1e1e1"/><stop offset="0.38" stop-color="#bebebe"/><stop offset="0.57" stop-color="#8c8c8c"/><stop offset="0.78" stop-color="#4d4d4d"/><stop offset="1" stop-color="#010101"/><stop offset="1"/></linearGradient><linearGradient id="Dégradé_sans_nom_12-2" x1="122.85" y1="44.92" x2="112.12" y2="28.55" xlink:href="#Dégradé_sans_nom_12"/><linearGradient id="linear-gradient" x1="135.03" y1="86.88" x2="66.88" y2="89.89" gradientUnits="userSpaceOnUse"><stop offset="0" stop-color="#fff"/><stop offset="0.09" stop-color="#fff" stop-opacity="0.97"/><stop offset="0.22" stop-color="#fff" stop-opacity="0.88"/><stop offset="0.38" stop-color="#fff" stop-opacity="0.74"/><stop offset="0.57" stop-color="#fff" stop-opacity="0.55"/><stop offset="0.77" stop-color="#fff" stop-opacity="0.3"/><stop offset="1" stop-color="#fff" stop-opacity="0"/><stop offset="1" stop-color="#fff" stop-opacity="0"/></linearGradient><linearGradient id="linear-gradient-2" x1="185.19" y1="163.26" x2="117.04" y2="166.27" gradientTransform="translate(193.16 193.94) rotate(180)" xlink:href="#linear-gradient"/><linearGradient id="linear-gradient-3" x1="113.36" y1="112.38" x2="101.92" y2="94.92" gradientTransform="translate(206.08 136.15) rotate(180)" gradientUnits="userSpaceOnUse"><stop offset="0" stop-color="#fff"/><stop offset="0.09" stop-color="#f7fafb"/><stop offset="0.22" stop-color="#e1ecef"/><stop offset="0.39" stop-color="#bed5dd"/><stop offset="0.58" stop-color="#8cb5c3"/><stop offset="0.79" stop-color="#4d8ca2"/><stop offset="1" stop-color="#055d7c"/></linearGradient><linearGradient id="linear-gradient-4" x1="188.47" y1="62.94" x2="177.38" y2="46.02" xlink:href="#linear-gradient-3"/></defs><g class="cls-1"><g id="Calque_2" data-name="Calque 2"><g id="OBJECTS"><path class="cls-2" d="M140.53,22.17,133,41.83a54.54,54.54,0,0,0-3.51,19.84v.08a55.81,55.81,0,0,1-104,28.19L48.58,76.35a27.92,27.92,0,0,0,47.56-28Z"/><circle class="cls-3" cx="70.26" cy="58.78" r="14.01"/><g class="cls-4"><path class="cls-5" d="M48.58,76.35,25.51,89.94a56.19,56.19,0,0,0,13.3,15.37l24-19.64A27.94,27.94,0,0,1,48.58,76.35Z"/><path class="cls-6" d="M96.14,48.32a28.15,28.15,0,0,1,2,8.54l42.44-34.69Z"/></g><path class="cls-7" d="M73.67,117.56a55.81,55.81,0,0,0,55.81-55.81v-.08c0-.86,0-1.71.05-2.57-19.35,54.37-104,30.84-104,30.84A55.77,55.77,0,0,0,73.67,117.56Z"/><path class="cls-8" d="M117.63,27.57l-25,14.55A27.91,27.91,0,0,0,44.72,70L0,96.07,8.87,78A48.08,48.08,0,0,0,13.7,56.31V55.8A55.8,55.8,0,0,1,117.63,27.57Z"/><path class="cls-9" d="M69.33,0A55.81,55.81,0,0,0,13.51,55.8v.09c0,.86,0,1.71,0,2.57,19.34-54.38,104-30.84,104-30.84A55.76,55.76,0,0,0,69.33,0Z"/><g class="cls-4"><path class="cls-10" d="M92.65,42.12l23.41-13.64a63.88,63.88,0,0,0-14.34-16.27l-24,19.64A28.17,28.17,0,0,1,92.65,42.12Z"/><path class="cls-11" d="M44.72,70a29,29,0,0,1-2.28-8.65L0,96.07Z"/></g></g></g></g></svg>