<?xml version="1.0" standalone="no"?>
<!DOCTYPE svg PUBLIC "-//W3C//DTD SVG 20010904//EN"
 "http://www.w3.org/TR/2001/REC-SVG-20010904/DTD/svg10.dtd">
<svg version="1.0" xmlns="http://www.w3.org/2000/svg"
 width="157.000000pt" height="157.000000pt" viewBox="0 0 157.000000 157.000000"
 preserveAspectRatio="xMidYMid meet">
<metadata>
Created by potrace 1.11, written by Peter Selinger 2001-2013
</metadata>
<g transform="translate(0.000000,157.000000) scale(0.100000,-0.100000)"
fill="#000000" stroke="none">
<path d="M92 1327 c-44 -13 -92 -69 -92 -108 0 -44 25 -95 55 -115 53 -35 157
-21 192 25 23 30 32 79 20 116 -19 63 -103 102 -175 82z"/>
<path d="M930 1085 l0 -166 -40 32 c-124 100 -309 84 -419 -37 -129 -141 -135
-391 -14 -552 103 -138 341 -154 450 -32 l22 25 1 -47 c0 -54 -13 -50 133 -50
48 0 91 2 94 6 3 3 6 226 7 496 l1 490 -117 0 -118 0 0 -165z m-98 -284 c86
-34 124 -165 76 -261 -33 -65 -79 -93 -146 -88 -95 8 -144 63 -150 168 -4 57
0 75 19 109 43 78 118 104 201 72z"/>
<path d="M20 634 c0 -206 3 -374 8 -375 13 -1 137 -1 182 0 l45 1 -2 302 c-1
167 -2 335 -3 374 l0 70 -115 1 -115 1 0 -374z"/>
<path d="M1383 489 c-50 -14 -83 -62 -83 -118 0 -53 18 -84 60 -106 104 -54
221 13 207 117 -7 52 -30 85 -73 103 -41 17 -64 18 -111 4z"/>
</g>
</svg>
